Force Plate Walk 5
version=1
nRows=64
nColumns=19
inDegrees=yes
endheader
time	ground_force1_vx	ground_force1_vy	ground_force1_vz	ground_force1_px	ground_force1_py	ground_force1_pz	ground_torque1_x	ground_torque1_y	ground_torque1_z	ground_force2_vx	ground_force2_vy	ground_force2_vz	ground_force2_px	ground_force2_py	ground_force2_pz	ground_torque2_x	ground_torque2_y	ground_torque2_z
4.715000	-127.779305	509.362274	20.006933	0.674671	0.000000	-0.209289	-0.000000	-0.000715	0.000003	21.198792	327.871246	-4.388814	0.119155	0.000000	-0.043448	0.000001	-1.155711	-0.000003	
4.716000	-127.535156	504.410309	19.148514	0.673818	0.000000	-0.209664	-0.000000	0.120091	0.000023	22.732044	334.071198	-3.923530	0.117886	0.000000	-0.043780	0.000000	-1.084487	0.000001	
4.717000	-127.560570	497.628204	18.939232	0.673915	0.000000	-0.209452	0.000001	0.087355	0.000035	24.156651	342.202515	-3.215782	0.117523	0.000000	-0.044706	0.000005	-1.380207	0.000004	
4.718000	-126.806595	491.715149	18.218681	0.673883	0.000000	-0.209496	0.000008	0.041924	0.000011	25.487810	347.982025	-3.190593	0.116701	0.000000	-0.045158	0.000009	-1.341424	0.000000	
4.719000	-126.212631	486.925415	18.408928	0.673759	0.000000	-0.209361	0.000005	0.161001	0.000018	27.350140	353.926819	-3.347270	0.116674	0.000000	-0.046271	0.000008	-1.154791	-0.000001	
4.720000	-125.901268	481.975800	18.300751	0.673608	0.000000	-0.209344	0.000005	0.233748	0.000033	29.736431	359.047424	-2.399695	0.115081	0.000000	-0.045239	-0.000004	-1.080630	-0.000001	
4.721000	-125.553864	476.034576	17.807890	0.673548	0.000000	-0.209331	0.000001	0.127537	0.000004	31.972029	362.808441	-1.644228	0.113862	0.000000	-0.044974	-0.000003	-1.091480	-0.000003	
4.722000	-125.120537	469.349548	17.264975	0.672975	0.000000	-0.209217	0.000006	0.159689	0.000018	35.302727	366.679077	-1.951131	0.112365	0.000000	-0.044494	-0.000006	-0.772999	-0.000004	
4.723000	-124.359192	462.555511	16.796034	0.672528	0.000000	-0.209077	0.000006	0.225779	-0.000001	38.439423	369.983673	-2.342743	0.110717	0.000000	-0.044525	-0.000000	-0.671308	-0.000000	
4.724000	-124.094795	455.759277	16.493704	0.672069	0.000000	-0.209060	0.000007	0.295961	0.000005	41.759747	375.935455	-0.964750	0.110049	0.000000	-0.044938	-0.000004	-0.627695	0.000003	
4.725000	-123.061790	448.667236	16.366825	0.671528	0.000000	-0.209177	0.000006	0.415307	0.000016	44.497272	380.222595	-0.289934	0.108464	0.000000	-0.044540	-0.000001	-0.243148	0.000001	
4.726000	-122.508522	443.974365	16.575222	0.671643	0.000000	-0.209491	0.000008	0.524527	-0.000009	47.569172	386.546082	-1.070459	0.106493	0.000000	-0.044226	0.000002	-0.209766	0.000002	
4.727000	-122.132744	438.467957	15.840394	0.672062	0.000000	-0.209500	0.000001	0.506151	0.000008	50.956367	394.845978	-1.834784	0.105041	0.000000	-0.044592	0.000003	0.033672	-0.000004	
4.728000	-121.171310	430.265106	15.159984	0.670976	0.000000	-0.209301	0.000005	0.475410	0.000006	54.826088	403.984009	-3.621598	0.103500	0.000000	-0.045013	-0.000005	0.305429	0.000004	
4.729000	-120.163216	422.920013	15.291172	0.670561	0.000000	-0.209215	0.000009	0.582761	0.000023	58.336845	411.703064	-5.577144	0.102985	0.000000	-0.045196	0.000002	-0.076536	0.000001	
4.730000	-118.259514	417.298706	14.376303	0.670648	0.000000	-0.209890	0.000006	0.626914	0.000005	61.325375	419.787506	-5.929132	0.102854	0.000000	-0.044973	-0.000001	0.087197	0.000004	
4.731000	-117.210052	410.083252	13.669039	0.670193	0.000000	-0.209860	-0.000002	0.642857	0.000002	64.351372	426.714722	-6.952191	0.100984	0.000000	-0.043558	-0.000004	0.517630	0.000005	
4.732000	-116.158829	402.568359	13.564398	0.669710	0.000000	-0.209955	0.000009	0.725591	0.000022	66.724449	435.603210	-10.156324	0.100143	0.000000	-0.042839	0.000002	-0.301541	0.000001	
4.733000	-115.393234	397.216949	12.779930	0.669730	0.000000	-0.210540	0.000001	0.694906	0.000016	69.615273	443.619141	-12.633471	0.100123	0.000000	-0.042778	-0.000003	-0.489946	0.000000	
4.734000	-114.221794	387.919403	11.942979	0.668808	0.000000	-0.210307	-0.000001	0.658034	0.000030	72.051880	448.390594	-12.542966	0.098357	0.000000	-0.041120	-0.000003	-0.045242	0.000008	
4.735000	-113.123558	380.042328	11.662203	0.668119	0.000000	-0.210146	0.000005	0.738981	0.000018	74.405449	454.169006	-14.914948	0.097280	0.000000	-0.039992	-0.000001	-0.425410	0.000004	
4.736000	-111.653297	371.612091	12.083006	0.667967	0.000000	-0.209979	0.000007	0.762610	0.000025	76.302094	461.391357	-17.757517	0.096477	0.000000	-0.040171	-0.000003	-1.101028	0.000004	
4.737000	-110.440536	363.343597	11.447965	0.667409	0.000000	-0.210040	0.000005	0.714766	0.000012	78.363213	469.455170	-19.149765	0.095958	0.000000	-0.039812	-0.000001	-1.177758	0.000001	
4.738000	-109.428177	355.112244	10.628860	0.667001	0.000000	-0.209596	0.000001	0.607714	0.000020	80.625214	477.345123	-19.250860	0.095474	0.000000	-0.039471	-0.000002	-1.225365	0.000007	
4.739000	-108.218498	349.644012	10.032078	0.666496	0.000000	-0.210306	0.000003	0.698872	0.000012	83.195145	484.237762	-19.635092	0.094385	0.000000	-0.038030	-0.000003	-1.529119	0.000006	
4.740000	-106.811455	340.642365	9.631397	0.666038	0.000000	-0.210502	0.000005	0.749924	0.000005	84.975601	493.126251	-21.228579	0.093588	0.000000	-0.038389	0.000007	-1.975820	0.000004	
4.741000	-105.606155	333.174683	9.428040	0.665906	0.000000	-0.210127	0.000005	0.735248	0.000031	85.712769	500.220825	-22.319918	0.092754	0.000000	-0.038310	0.000000	-2.061097	0.000003	
4.742000	-104.136360	325.435272	8.461852	0.665374	0.000000	-0.210010	0.000002	0.693069	0.000002	87.459419	507.891205	-21.778378	0.092524	0.000000	-0.038196	-0.000002	-2.203055	-0.000002	
4.743000	-102.308365	317.216583	7.899341	0.664246	0.000000	-0.209955	-0.000001	0.667731	0.000025	88.751747	513.845520	-22.373985	0.090925	0.000000	-0.037973	-0.000000	-2.693564	-0.000001	
4.744000	-100.275345	310.854706	7.113649	0.664472	0.000000	-0.210282	0.000002	0.597923	-0.000003	90.329872	519.525696	-23.270731	0.089786	0.000000	-0.037807	-0.000001	-2.743952	0.000001	
4.745000	-98.072746	302.608368	5.812532	0.663378	0.000000	-0.210169	0.000008	0.571548	-0.000003	92.241760	527.673828	-23.462387	0.090213	0.000000	-0.038430	-0.000001	-2.755902	0.000001	
4.746000	-95.604958	296.481293	5.126193	0.663082	0.000000	-0.210376	0.000005	0.571458	0.000013	93.680336	530.404175	-22.625034	0.088254	0.000000	-0.037450	0.000001	-2.750484	0.000005	
4.747000	-93.781395	287.356476	5.486706	0.661854	0.000000	-0.210164	0.000005	0.583932	0.000001	95.218994	536.460144	-22.484922	0.087688	0.000000	-0.037916	0.000007	-2.668482	0.000004	
4.748000	-92.231544	278.340424	4.539325	0.661412	0.000000	-0.210463	0.000002	0.612756	-0.000004	96.839294	543.187256	-23.046949	0.086267	0.000000	-0.037523	0.000001	-2.554226	0.000004	
4.749000	-90.017845	271.245667	4.036693	0.660965	0.000000	-0.210452	0.000002	0.603119	0.000021	99.898438	550.546692	-23.403126	0.084447	0.000000	-0.037361	0.000008	-2.649295	0.000003	
4.750000	-87.991608	264.141174	3.810929	0.660787	0.000000	-0.210316	0.000003	0.546959	-0.000002	103.513000	557.693787	-24.621920	0.083214	0.000000	-0.038088	0.000003	-2.449168	0.000002	
4.751000	-85.941513	257.602234	3.065764	0.660425	0.000000	-0.210428	0.000003	0.466200	0.000000	106.164803	565.134399	-24.595591	0.083077	0.000000	-0.039252	-0.000003	-2.118901	-0.000002	
4.752000	-83.648003	249.637390	2.845026	0.659767	0.000000	-0.210356	-0.000000	0.416952	-0.000006	108.451248	568.624329	-23.837603	0.081766	0.000000	-0.039277	-0.000001	-1.783293	0.000001	
4.753000	-81.399963	242.015823	2.413609	0.658614	0.000000	-0.210480	0.000003	0.403674	-0.000001	110.755051	578.492188	-23.699944	0.082372	0.000000	-0.041498	-0.000005	-1.776891	0.000000	
4.754000	-79.768814	233.890106	2.022663	0.657475	0.000000	-0.210173	0.000003	0.355194	-0.000002	113.080688	581.616943	-24.728586	0.080897	0.000000	-0.041444	-0.000000	-1.633446	0.000003	
4.755000	-77.557724	225.048004	1.169438	0.656097	0.000000	-0.210919	0.000005	0.378228	0.000006	115.665764	583.398010	-23.872932	0.079726	0.000000	-0.041131	0.000002	-1.161529	-0.000001	
4.756000	-75.759567	219.178207	0.793600	0.656359	0.000000	-0.210358	0.000002	0.302286	0.000016	117.843567	586.087463	-22.211285	0.078759	0.000000	-0.041432	0.000005	-0.769463	0.000003	
4.757000	-73.740700	213.544739	0.810393	0.657921	0.000000	-0.211067	0.000002	0.315098	0.000008	119.781311	588.637085	-21.990698	0.077704	0.000000	-0.041705	0.000009	-0.535406	0.000001	
4.758000	-71.757652	204.142029	-0.051847	0.655686	0.000000	-0.211116	0.000000	0.265122	0.000016	121.778091	590.228699	-22.319950	0.076926	0.000000	-0.041730	-0.000003	-0.401783	0.000006	
4.759000	-70.321449	197.802536	-0.211271	0.654361	0.000000	-0.210896	0.000003	0.215873	0.000016	123.719505	591.025085	-21.570425	0.076121	0.000000	-0.041460	0.000001	-0.110146	0.000006	
4.760000	-69.198219	190.262024	-0.451558	0.654353	0.000000	-0.210651	0.000004	0.139393	0.000013	125.208382	594.783508	-20.452192	0.075981	0.000000	-0.042193	0.000001	0.069211	0.000001	
4.761000	-67.041222	184.534592	-0.286427	0.653945	0.000000	-0.210888	0.000001	0.163330	0.000002	126.291878	595.112549	-21.002750	0.074734	0.000000	-0.041794	0.000005	-0.067235	0.000003	
4.762000	-64.862823	178.571045	-0.808309	0.653547	0.000000	-0.210252	0.000002	0.160530	0.000012	127.642838	598.666809	-22.257174	0.074699	0.000000	-0.042660	0.000010	-0.217930	0.000005	
4.763000	-62.705666	172.201233	-0.772765	0.653518	0.000000	-0.211429	-0.000000	0.200174	0.000009	128.151321	601.123230	-22.152365	0.074823	0.000000	-0.042791	0.000008	-0.242277	-0.000008	
4.764000	-60.551018	166.081146	-0.927331	0.652777	0.000000	-0.211427	0.000002	0.087246	0.000007	128.336594	599.008484	-22.281727	0.073678	0.000000	-0.041316	0.000003	-0.223989	-0.000003	
4.765000	-57.947212	159.697647	-1.603246	0.651312	0.000000	-0.211636	0.000002	0.095862	0.000005	128.192581	601.635925	-24.122126	0.073510	0.000000	-0.041071	0.000003	-0.709314	-0.000007	
4.766000	-55.409996	152.344360	-1.660915	0.649753	0.000000	-0.211834	0.000001	0.153291	0.000004	128.444229	600.608704	-25.820776	0.072479	0.000000	-0.039902	0.000005	-0.769951	-0.000004	
4.767000	-52.670807	145.767075	-2.603377	0.649767	0.000000	-0.211780	0.000002	-0.027117	0.000002	128.332108	603.331848	-27.035711	0.072421	0.000000	-0.039703	0.000002	-1.102363	0.000002	
4.768000	-50.579300	139.031464	-2.856494	0.648444	0.000000	-0.210463	0.000001	0.028607	0.000005	128.451401	606.884827	-28.478571	0.072599	0.000000	-0.040095	0.000001	-1.412524	-0.000002	
4.769000	-48.290279	134.704147	-2.354420	0.649475	0.000000	-0.210701	0.000002	0.050516	0.000001	128.223175	609.540100	-30.141775	0.072511	0.000000	-0.039816	0.000007	-1.694636	0.000001	
4.770000	-46.645824	129.860962	-2.590610	0.649740	0.000000	-0.211150	0.000000	-0.003242	0.000004	128.539734	610.786377	-31.537289	0.071967	0.000000	-0.039314	0.000005	-1.874334	0.000006	
4.771000	-45.272411	122.103394	-2.891890	0.647369	0.000000	-0.211641	0.000001	-0.069065	0.000004	128.288223	614.270874	-32.709381	0.071731	0.000000	-0.039345	0.000006	-2.241412	0.000001	
4.772000	-43.229599	115.726715	-2.873932	0.646410	0.000000	-0.210759	0.000001	-0.033579	-0.000001	128.461014	618.470093	-33.245239	0.071994	0.000000	-0.039410	0.000003	-2.233600	0.000004	
4.773000	-41.149868	109.961708	-2.731245	0.645743	0.000000	-0.211012	0.000000	-0.004373	0.000008	129.293167	618.773804	-34.271713	0.070435	0.000000	-0.038004	0.000007	-2.145231	0.000001	
4.774000	-38.928261	103.331726	-2.804215	0.644612	0.000000	-0.209607	0.000001	0.011019	0.000003	129.936188	621.117981	-35.742065	0.069490	0.000000	-0.037765	-0.000001	-2.278856	-0.000001	
4.775000	-37.597698	99.013313	-2.677880	0.645955	0.000000	-0.210754	0.000000	0.017183	0.000002	129.776886	625.156311	-36.501553	0.068916	0.000000	-0.037938	-0.000000	-2.541675	-0.000005	
4.776000	-35.969296	93.561028	-2.978848	0.645411	0.000000	-0.211381	0.000002	-0.011808	-0.000001	130.920395	628.179932	-37.076805	0.067911	0.000000	-0.037452	0.000004	-2.281281	-0.000003	
4.777000	-34.416389	89.366814	-2.663296	0.643076	0.000000	-0.210125	0.000001	-0.012902	0.000004	131.724594	634.083435	-37.308380	0.067972	0.000000	-0.037987	0.000003	-2.305765	-0.000005	
4.778000	-31.966396	82.386543	-2.627625	0.641222	0.000000	-0.210851	0.000000	0.072123	-0.000000	132.414337	639.880798	-38.163326	0.068025	0.000000	-0.038189	0.000010	-2.267479	0.000003	
